<mxfile host="app.diagrams.net" modified="2024-02-06T09:28:52.706Z" agent="Mozilla/5.0 (Macintosh; Intel Mac OS X 10_15_7) AppleWebKit/537.36 (KHTML, like Gecko) Chrome/121.0.0.0 Safari/537.36" etag="TNVaYypDQTnnA5ezXtIf" version="23.1.1" type="device">
  <diagram name="Page-1" id="pVuogkkmxwVMaVSodRj6">
    <mxGraphModel dx="1143" dy="1704" grid="1" gridSize="10" guides="1" tooltips="1" connect="1" arrows="1" fold="1" page="1" pageScale="1" pageWidth="850" pageHeight="1100" math="0" shadow="0">
      <root>
        <mxCell id="0" />
        <mxCell id="1" parent="0" />
        <mxCell id="XsxVrv2KiXWt2zf1GmJV-1" value="User" style="rounded=0;whiteSpace=wrap;html=1;" vertex="1" parent="1">
          <mxGeometry x="10" y="230" width="120" height="60" as="geometry" />
        </mxCell>
        <mxCell id="XsxVrv2KiXWt2zf1GmJV-2" value="Saas App" style="rounded=0;whiteSpace=wrap;html=1;" vertex="1" parent="1">
          <mxGeometry x="240" y="230" width="120" height="60" as="geometry" />
        </mxCell>
        <mxCell id="XsxVrv2KiXWt2zf1GmJV-3" value="" style="endArrow=classic;html=1;rounded=0;exitX=1;exitY=0.5;exitDx=0;exitDy=0;" edge="1" parent="1" source="XsxVrv2KiXWt2zf1GmJV-1">
          <mxGeometry width="50" height="50" relative="1" as="geometry">
            <mxPoint x="190" y="310" as="sourcePoint" />
            <mxPoint x="240" y="260" as="targetPoint" />
          </mxGeometry>
        </mxCell>
        <mxCell id="XsxVrv2KiXWt2zf1GmJV-4" value="zomato backed" style="rounded=0;whiteSpace=wrap;html=1;" vertex="1" parent="1">
          <mxGeometry x="520" y="230" width="120" height="60" as="geometry" />
        </mxCell>
        <mxCell id="XsxVrv2KiXWt2zf1GmJV-5" value="LB" style="rhombus;whiteSpace=wrap;html=1;" vertex="1" parent="1">
          <mxGeometry x="410" y="230" width="80" height="80" as="geometry" />
        </mxCell>
        <mxCell id="XsxVrv2KiXWt2zf1GmJV-6" value="" style="endArrow=classic;html=1;rounded=0;exitX=1;exitY=0.5;exitDx=0;exitDy=0;" edge="1" parent="1" source="XsxVrv2KiXWt2zf1GmJV-2">
          <mxGeometry width="50" height="50" relative="1" as="geometry">
            <mxPoint x="370" y="320" as="sourcePoint" />
            <mxPoint x="420" y="270" as="targetPoint" />
          </mxGeometry>
        </mxCell>
        <mxCell id="XsxVrv2KiXWt2zf1GmJV-7" value="" style="endArrow=classic;html=1;rounded=0;exitX=1;exitY=0.5;exitDx=0;exitDy=0;" edge="1" parent="1" source="XsxVrv2KiXWt2zf1GmJV-5">
          <mxGeometry width="50" height="50" relative="1" as="geometry">
            <mxPoint x="470" y="320" as="sourcePoint" />
            <mxPoint x="520" y="270" as="targetPoint" />
          </mxGeometry>
        </mxCell>
        <mxCell id="XsxVrv2KiXWt2zf1GmJV-8" value="User service" style="rounded=0;whiteSpace=wrap;html=1;" vertex="1" parent="1">
          <mxGeometry x="490" y="90" width="120" height="60" as="geometry" />
        </mxCell>
        <mxCell id="XsxVrv2KiXWt2zf1GmJV-9" value="Tenant service" style="rounded=0;whiteSpace=wrap;html=1;" vertex="1" parent="1">
          <mxGeometry x="660" y="40" width="120" height="60" as="geometry" />
        </mxCell>
        <mxCell id="XsxVrv2KiXWt2zf1GmJV-10" value="Acccess managment" style="rounded=0;whiteSpace=wrap;html=1;" vertex="1" parent="1">
          <mxGeometry x="400" y="10" width="120" height="60" as="geometry" />
        </mxCell>
        <mxCell id="XsxVrv2KiXWt2zf1GmJV-11" value="Saas ops portal" style="rounded=0;whiteSpace=wrap;html=1;" vertex="1" parent="1">
          <mxGeometry x="230" y="90" width="120" height="60" as="geometry" />
        </mxCell>
        <mxCell id="XsxVrv2KiXWt2zf1GmJV-12" value="saas user/ops people" style="rounded=0;whiteSpace=wrap;html=1;" vertex="1" parent="1">
          <mxGeometry x="40" y="90" width="120" height="60" as="geometry" />
        </mxCell>
        <mxCell id="XsxVrv2KiXWt2zf1GmJV-13" value="" style="endArrow=classic;html=1;rounded=0;exitX=1;exitY=0.5;exitDx=0;exitDy=0;" edge="1" parent="1" source="XsxVrv2KiXWt2zf1GmJV-12">
          <mxGeometry width="50" height="50" relative="1" as="geometry">
            <mxPoint x="180" y="180" as="sourcePoint" />
            <mxPoint x="230" y="130" as="targetPoint" />
          </mxGeometry>
        </mxCell>
        <mxCell id="XsxVrv2KiXWt2zf1GmJV-14" value="order service" style="rounded=0;whiteSpace=wrap;html=1;" vertex="1" parent="1">
          <mxGeometry x="700" y="270" width="120" height="60" as="geometry" />
        </mxCell>
        <mxCell id="XsxVrv2KiXWt2zf1GmJV-15" value="pament service" style="rounded=0;whiteSpace=wrap;html=1;" vertex="1" parent="1">
          <mxGeometry x="630" y="380" width="120" height="60" as="geometry" />
        </mxCell>
        <mxCell id="XsxVrv2KiXWt2zf1GmJV-16" value="notifction service" style="rounded=0;whiteSpace=wrap;html=1;" vertex="1" parent="1">
          <mxGeometry x="425" y="390" width="120" height="60" as="geometry" />
        </mxCell>
        <mxCell id="XsxVrv2KiXWt2zf1GmJV-18" value="aggratoe service service" style="rounded=0;whiteSpace=wrap;html=1;" vertex="1" parent="1">
          <mxGeometry x="670" y="150" width="120" height="60" as="geometry" />
        </mxCell>
        <mxCell id="XsxVrv2KiXWt2zf1GmJV-19" value="zomato APP" style="rounded=0;whiteSpace=wrap;html=1;" vertex="1" parent="1">
          <mxGeometry x="200" y="360" width="120" height="60" as="geometry" />
        </mxCell>
        <mxCell id="XsxVrv2KiXWt2zf1GmJV-20" value="" style="endArrow=classic;html=1;rounded=0;exitX=1;exitY=0.25;exitDx=0;exitDy=0;" edge="1" parent="1" source="XsxVrv2KiXWt2zf1GmJV-19">
          <mxGeometry width="50" height="50" relative="1" as="geometry">
            <mxPoint x="400" y="360" as="sourcePoint" />
            <mxPoint x="450" y="310" as="targetPoint" />
          </mxGeometry>
        </mxCell>
        <mxCell id="XsxVrv2KiXWt2zf1GmJV-21" value="" style="rounded=0;whiteSpace=wrap;html=1;" vertex="1" parent="1">
          <mxGeometry x="790" y="70" width="120" height="60" as="geometry" />
        </mxCell>
        <mxCell id="XsxVrv2KiXWt2zf1GmJV-22" value="" style="rounded=0;whiteSpace=wrap;html=1;" vertex="1" parent="1">
          <mxGeometry x="820" y="190" width="120" height="60" as="geometry" />
        </mxCell>
        <mxCell id="XsxVrv2KiXWt2zf1GmJV-23" value="" style="endArrow=classic;html=1;rounded=0;exitX=0.626;exitY=1.03;exitDx=0;exitDy=0;exitPerimeter=0;" edge="1" parent="1" source="XsxVrv2KiXWt2zf1GmJV-18">
          <mxGeometry width="50" height="50" relative="1" as="geometry">
            <mxPoint x="770" y="270" as="sourcePoint" />
            <mxPoint x="820" y="220" as="targetPoint" />
          </mxGeometry>
        </mxCell>
        <mxCell id="XsxVrv2KiXWt2zf1GmJV-24" value="" style="endArrow=classic;html=1;rounded=0;" edge="1" parent="1">
          <mxGeometry width="50" height="50" relative="1" as="geometry">
            <mxPoint x="790" y="180" as="sourcePoint" />
            <mxPoint x="840" y="130" as="targetPoint" />
          </mxGeometry>
        </mxCell>
        <mxCell id="XsxVrv2KiXWt2zf1GmJV-25" value="Report /audit service" style="rounded=0;whiteSpace=wrap;html=1;" vertex="1" parent="1">
          <mxGeometry x="560" y="-20" width="120" height="60" as="geometry" />
        </mxCell>
        <mxCell id="XsxVrv2KiXWt2zf1GmJV-26" value="" style="endArrow=classic;html=1;rounded=0;exitX=0.067;exitY=-0.068;exitDx=0;exitDy=0;exitPerimeter=0;" edge="1" parent="1" source="XsxVrv2KiXWt2zf1GmJV-4">
          <mxGeometry width="50" height="50" relative="1" as="geometry">
            <mxPoint x="410" y="120" as="sourcePoint" />
            <mxPoint x="460" y="70" as="targetPoint" />
          </mxGeometry>
        </mxCell>
        <mxCell id="XsxVrv2KiXWt2zf1GmJV-27" value="" style="endArrow=classic;html=1;rounded=0;exitX=0.159;exitY=0.999;exitDx=0;exitDy=0;exitPerimeter=0;" edge="1" parent="1" source="XsxVrv2KiXWt2zf1GmJV-10">
          <mxGeometry width="50" height="50" relative="1" as="geometry">
            <mxPoint x="370" y="200" as="sourcePoint" />
            <mxPoint x="520" y="380" as="targetPoint" />
          </mxGeometry>
        </mxCell>
        <mxCell id="XsxVrv2KiXWt2zf1GmJV-28" value="" style="endArrow=classic;html=1;rounded=0;" edge="1" parent="1">
          <mxGeometry width="50" height="50" relative="1" as="geometry">
            <mxPoint x="410" y="420" as="sourcePoint" />
            <mxPoint x="70" y="290" as="targetPoint" />
          </mxGeometry>
        </mxCell>
        <mxCell id="XsxVrv2KiXWt2zf1GmJV-30" value="PUSH" style="text;html=1;align=center;verticalAlign=middle;resizable=0;points=[];autosize=1;strokeColor=none;fillColor=none;" vertex="1" parent="1">
          <mxGeometry x="330" y="368" width="60" height="30" as="geometry" />
        </mxCell>
        <mxCell id="XsxVrv2KiXWt2zf1GmJV-31" value="oTp SERVICE" style="rounded=0;whiteSpace=wrap;html=1;" vertex="1" parent="1">
          <mxGeometry x="260" width="120" height="60" as="geometry" />
        </mxCell>
      </root>
    </mxGraphModel>
  </diagram>
</mxfile>
